<?xml version="1.0" encoding="utf-8"?>
<!-- Generator: Adobe Illustrator 16.0.0, SVG Export Plug-In . SVG Version: 6.00 Build 0)  -->
<svg version="1.1" id="Calque_1" xmlns="http://www.w3.org/2000/svg" xmlns:xlink="http://www.w3.org/1999/xlink" x="0px" y="0px"
	 width="566.93px" height="340.6px" viewBox="0 0 566.93 340.6" enable-background="new 0 0 566.93 340.6" xml:space="preserve">
<g>
	<polygon fill-rule="evenodd" clip-rule="evenodd" fill="#F25100" points="478.047,75.729 100.251,75.689 288.086,0 478.047,75.729 
			"/>
	<path fill-rule="evenodd" clip-rule="evenodd" fill="#3D4041" d="M78.083,181.51l0.081,0.428c0.073,0.385,0.08,0.486,0.077,1.021
		c-0.019,2.58-0.051,7.635-0.234,7.736c-0.506,0.287-1.953-0.834-3.517-1.738c-0.793-0.457-7.029-2.486-8.498-2.766
		c-9.347-1.773-15.967-2.371-25.493-0.297c-11.096,2.416-23.495,9.109-26.877,20.455c-1.529,5.127-0.81,11.756,2.075,16.402
		c6.179,9.951,20.308,14.898,31.245,15.811c7.185,0.598,17.682-0.457,24.584-3.459c2.713-1.182,6.709-3.305,6.709-3.305l0.406,0.898
		v8.863c0,0-4.23,1.449-7.213,2.338c-18.025,5.371-43.85,2.656-58.761-9.031c-9.754-7.646-14.534-16.387-11.988-28.123
		c2.64-12.17,14.388-20.918,26.086-25.295c15.355-5.746,34.907-6.455,50.684-0.574C77.946,181.063,78.01,181.125,78.083,181.51
		L78.083,181.51z"/>
	<path fill-rule="evenodd" clip-rule="evenodd" fill="#3D4041" d="M113.477,244.348h-13.228c0,0,0.232-15.902,0.128-31.971
		c-0.112-17.525,0-35.08,0-35.08h12.648v26.482h46.837v-27.074h12.648v67.193h-12.649v-32.215c0,0-0.502,0-1.412,0h-44.972V244.348
		L113.477,244.348z"/>
	<path fill-rule="evenodd" clip-rule="evenodd" fill="#3D4041" d="M238.1,173.398l-47.473,69.92l13.495-0.008l11.053-16.947
		l45.05-0.018l11.186,16.945l13.547,0.014l-47.144-70.648C237.586,172.42,238.1,173.398,238.1,173.398L238.1,173.398z
		 M238.022,192.119l17.401,26.875l-0.678,0.004l-34.957,0.029L238.022,192.119L238.022,192.119z"/>
	<path fill-rule="evenodd" clip-rule="evenodd" fill="#3D4041" d="M314.405,215.242c0,0,5.845,0.072,9.93,0
		c8.101-0.143,16.621-1.365,23.271-5.434c5.803-3.553,9.947-10.461,8.398-17.293c-2-8.826-10.439-13.318-18.279-15.119
		c-1.551-0.355-10.089-1.223-12.648-1.283c-8.25-0.199-23.319,0-23.319,0h-0.002v67.191h12.65V215.242L314.405,215.242z
		 M327.646,184.008c0.532,0.01,0.65,0.016,1.183,0.07c1.162,0.119,2.344,0.313,3.461,0.533c5.949,1.17,11.397,3.932,11.956,9.998
		c0.305,3.309-1.858,7.303-4.545,9.27c-3.252,2.381-11.549,3.529-15.336,3.656c-3.885,0.129-9.96,0-9.96,0h0.001v-23.527H327.646
		L327.646,184.008z"/>
	<path fill-rule="evenodd" clip-rule="evenodd" fill="#3D4041" d="M436.333,218.811V175.52h12.848v44.541
		c0.004,0.533-0.002,0.65-0.051,1.184c-0.946,10.453-8.353,16.02-18.127,19.787c-14.997,5.781-35.339,3.838-47.628-6.422
		c-2.725-2.275-5.436-5.602-6.422-9.289c-0.305-1.137-0.475-2.578-0.625-3.881c-0.06-0.529-0.067-0.648-0.07-1.182v-44.541h12.453
		v39.08c0.164,9.465,1.515,14.537,9.288,18.33c9.692,4.729,22.483,4.242,31.423-1.186c4.15-2.52,6.675-6.541,6.894-11.943
		C436.335,219.463,436.337,219.346,436.333,218.811L436.333,218.811z"/>
	<polygon fill-rule="evenodd" clip-rule="evenodd" fill="#3D4041" points="473.166,175.322 484.865,175.322 484.865,242.516 
		473.166,242.516 473.166,175.322 	"/>
	<path fill-rule="evenodd" clip-rule="evenodd" fill="#3D4041" d="M516.778,223.293c0,0,0.127,1.203,0.29,2.027
		c0.598,3.035,2.57,5.174,5.039,6.818c7.329,4.885,20.563,5.207,27.667-0.594c2.47-2.016,4.671-5.432,4.348-8.596
		c-0.63-6.166-5.504-8.738-10.968-10.672c-6.749-2.389-20.349-5.113-27.272-9.486c-4.14-2.613-7.735-6.711-7.41-11.383
		c0.485-6.975,4.154-10.84,10.672-13.813c9.312-4.248,24.043-5.057,33.99-0.791c2.27,0.973,5.7,2.82,7.313,4.348
		c1.306,1.236,2.847,3.049,2.847,3.049l-9.863,3.967c0,0-1.636-1.658-2.864-2.668c-5.824-4.787-16.99-4.23-22.925-1.779
		c-4.854,2.006-8.568,6.006-5.272,10.797c1.813,2.635,5.41,4.086,8.533,5.111c10.425,3.428,33.58,6.643,35.869,20.748
		c0.864,5.328-1.865,11.334-5.93,15.121c-9.791,9.125-27.309,9.771-39.327,6.127c-5.426-1.645-13.57-6.521-16.105-12.748
		c-0.567-1.391-1.213-4.65-1.394-4.402L516.778,223.293L516.778,223.293z"/>
	<path fill-rule="evenodd" clip-rule="evenodd" fill="#3D4041" d="M98.277,82.829l-0.08,78.432h387.266V82.9h-324.66v-0.071H98.277
		L98.277,82.829z M475.618,93.803v55.591h-68.087V93.803H475.618L475.618,93.803z M176.904,94.428v55.59l-68.259,0.035l0.029-55.625
		H176.904L176.904,94.428z M186.857,94.408l33.145,0.02v54.722h-33.145V94.408L186.857,94.408z M229.996,93.803v0.004h123.749
		v54.962H229.996c0,0,0.189-10.715,0.017-21.668C229.757,110.74,229.994,93.846,229.996,93.803L229.996,93.803z M363.665,93.803
		h33.145l0.056,54.722h-33.2V93.803L363.665,93.803z"/>
	<path fill-rule="evenodd" clip-rule="evenodd" fill="#3D4041" d="M152.58,321.713l1.711-1.367h1.812l6.116-10.887
		c-2.336,0-4.459,0.629-6.37,1.889c-1.911,1.258-3.236,2.902-3.974,4.93l-0.12,0.377l-3.917,1.605
		c1.569-3.498,3.861-6.061,6.875-7.689c3.014-1.631,6.966-2.445,11.854-2.445h9.861l-3.298,4.838h-1.094
		c0.314-0.457,0.552-0.906,0.714-1.352c0.539-1.48-1.522-2.221-6.182-2.221h-0.735l-6.158,10.955h7.452l-2.327,1.744
		c-1.732-0.252-3.418-0.377-5.059-0.377h-0.837l-2.814,5.008c-2.366,4.215-5.201,7.582-8.505,10.102
		c-3.303,2.518-6.539,3.777-9.707,3.777c-1.709,0-3.001-0.645-3.877-1.932l3.445-2.564c0.22,1.869,1.327,2.803,3.321,2.803
		c1.823,0,3.556-0.822,5.198-2.469s3.639-4.561,5.993-8.742l3.374-5.982H152.58L152.58,321.713z"/>
	<path fill-rule="evenodd" clip-rule="evenodd" fill="#3D4041" d="M171.87,333.848c3.077,0,6.356-1.369,9.837-4.109
		c3.481-2.742,5.842-5.814,7.082-9.223c0.643-1.766,0.659-3.219,0.048-4.357c-0.611-1.139-1.708-1.709-3.292-1.709
		c-2.928,0-6.141,1.393-9.639,4.18c-3.498,2.785-5.844,5.818-7.039,9.1c-0.634,1.744-0.666,3.199-0.094,4.367
		C169.345,333.264,170.378,333.848,171.87,333.848L171.87,333.848z M174.36,332.361c-2.29,0-2.762-1.852-1.414-5.555
		c1.02-2.803,2.59-5.324,4.71-7.563c2.119-2.24,3.994-3.359,5.623-3.359c2.302,0,2.766,1.887,1.394,5.658
		c-1.046,2.871-2.604,5.391-4.676,7.563C177.925,331.275,176.046,332.361,174.36,332.361L174.36,332.361z"/>
	<path fill-rule="evenodd" clip-rule="evenodd" fill="#3D4041" d="M188.924,333.625l3.181-5.264l4.748-8.443
		c0.739-1.311,1.181-2.164,1.326-2.563c0.257-0.707,0.049-1.061-0.623-1.061c-1.116,0-3.27,1.252-6.46,3.756l0.879-1.57
		c3.462-2.688,6.19-4.031,8.184-4.031c1.641,0,2.15,0.854,1.528,2.564c-0.211,0.58-0.695,1.549-1.45,2.904l-2.374,4.223h0.256
		c2.486-2.918,4.949-5.262,7.388-7.033c2.44-1.771,4.434-2.658,5.984-2.658c1.869,0,2.425,1.037,1.671,3.111
		c-0.245,0.672-0.64,1.492-1.187,2.461l-4.693,8.34c-0.743,1.322-1.185,2.176-1.326,2.564c-0.262,0.717-0.056,1.076,0.616,1.076
		c1.139,0,3.299-1.252,6.477-3.756l-0.902,1.588c-3.458,2.676-6.184,4.014-8.178,4.014c-1.641,0-2.148-0.859-1.523-2.578
		c0.207-0.568,0.696-1.537,1.467-2.902l4.703-8.367c0.373-0.648,0.64-1.195,0.801-1.639c0.336-0.922,0.162-1.383-0.522-1.383
		c-2.176,0-6.45,3.447-12.822,10.34l-3.468,6.102L188.924,333.625L188.924,333.625z"/>
	<path fill-rule="evenodd" clip-rule="evenodd" fill="#3D4041" d="M230.132,324.141l-2.374,4.221
		c-0.775,1.379-1.264,2.348-1.467,2.906c-0.627,1.721-0.114,2.58,1.539,2.58c1.982,0,4.703-1.338,8.161-4.016l0.904-1.59
		c-3.18,2.506-5.34,3.76-6.479,3.76c-0.673,0-0.874-0.371-0.604-1.111c0.132-0.363,0.576-1.207,1.33-2.529l7.611-13.535
		c2.056-3.646,3.787-6.135,5.193-7.461c1.406-1.328,3.021-1.992,4.844-1.992c0.946,0,1.989,0.297,3.129,0.889l3.225-2.426
		c-0.836-0.24-1.818-0.359-2.946-0.359c-2.723,0-5.536,0.889-8.439,2.666c-1.7,1.037-3.13,2.15-4.293,3.342s-2.491,2.914-3.984,5.17
		c-2.381,0-4.262,0.174-5.642,0.521c-1.38,0.348-2.881,1.027-4.503,2.043c-2.425,1.525-4.635,3.412-6.631,5.656
		c-1.997,2.244-3.368,4.393-4.114,6.443c-1.099,3.02-0.441,4.529,1.974,4.529c1.573,0,3.587-0.9,6.042-2.701
		c2.456-1.799,4.861-4.135,7.217-7.006H230.132L230.132,324.141z M233.988,317.303l-2.175,3.863
		c-2.352,2.643-4.824,4.996-7.415,7.059c-2.59,2.063-4.376,3.094-5.356,3.094c-1.059,0-1.264-0.895-0.612-2.684
		c0.9-2.473,2.648-5.258,5.246-8.357c2.196-2.621,4.325-3.932,6.388-3.932C231.499,316.346,232.807,316.666,233.988,317.303
		L233.988,317.303z"/>
	<path fill-rule="evenodd" clip-rule="evenodd" fill="#3D4041" d="M244.097,325.08c1.077-2.303,2.584-4.361,4.522-6.178
		c1.937-1.818,3.59-2.727,4.957-2.727c1.265,0,1.58,0.871,0.946,2.615c-0.643,1.766-1.885,3.203-3.725,4.314
		C248.957,324.217,246.724,324.875,244.097,325.08L244.097,325.08z M254.08,328.738c-3.794,2.096-6.745,3.145-8.853,3.145
		c-2.438,0-3.052-1.664-1.841-4.992l0.297-0.768c3.1,0,6.051-0.785,8.856-2.355c2.805-1.57,4.605-3.447,5.4-5.633
		c0.397-1.092,0.407-1.979,0.029-2.662c-0.378-0.682-1.074-1.023-2.089-1.023c-2.791,0-5.932,1.414-9.423,4.244
		c-3.491,2.828-5.821,5.848-6.989,9.059c-0.655,1.799-0.684,3.264-0.088,4.396c0.596,1.133,1.703,1.699,3.321,1.699
		c2.553,0,6.101-1.266,10.645-3.795L254.08,328.738L254.08,328.738z M254.717,311.492c1.522-0.832,3.966-1.959,7.333-3.385
		l2.106-2.734c-3.559,1.768-6.337,3.293-8.333,4.582L254.717,311.492L254.717,311.492z"/>
	<path fill-rule="evenodd" clip-rule="evenodd" fill="#3D4041" d="M273.685,328.738c-3.794,2.096-6.745,3.145-8.853,3.145
		c-2.438,0-3.052-1.664-1.841-4.992l0.297-0.768c3.099,0,6.051-0.785,8.856-2.355c2.805-1.57,4.605-3.447,5.4-5.633
		c0.397-1.092,0.407-1.979,0.029-2.662c-0.378-0.682-1.074-1.023-2.089-1.023c-2.791,0-5.932,1.414-9.423,4.244
		c-3.491,2.828-5.821,5.848-6.989,9.059c-0.655,1.799-0.684,3.264-0.088,4.396c0.596,1.133,1.703,1.699,3.321,1.699
		c2.553,0,6.101-1.266,10.645-3.795L273.685,328.738L273.685,328.738z M263.702,325.08c1.077-2.303,2.584-4.361,4.522-6.178
		c1.937-1.818,3.59-2.727,4.957-2.727c1.265,0,1.58,0.871,0.946,2.615c-0.643,1.766-1.885,3.203-3.725,4.314
		C268.562,324.217,266.329,324.875,263.702,325.08L263.702,325.08z"/>
	<path fill-rule="evenodd" clip-rule="evenodd" fill="#3D4041" d="M305.564,328.738c-3.794,2.096-6.745,3.145-8.854,3.145
		c-2.438,0-3.052-1.664-1.841-4.992l0.297-0.768c3.1,0,6.051-0.785,8.856-2.355c2.805-1.57,4.604-3.447,5.399-5.633
		c0.397-1.092,0.407-1.979,0.029-2.662c-0.379-0.682-1.075-1.023-2.089-1.023c-2.791,0-5.933,1.414-9.423,4.244
		c-3.491,2.828-5.821,5.848-6.989,9.059c-0.655,1.799-0.684,3.264-0.088,4.396s1.703,1.699,3.321,1.699
		c2.552,0,6.101-1.266,10.645-3.795L305.564,328.738L305.564,328.738z M295.581,325.08c1.077-2.303,2.584-4.361,4.522-6.178
		c1.937-1.818,3.59-2.727,4.957-2.727c1.265,0,1.58,0.871,0.944,2.615c-0.642,1.766-1.884,3.203-3.724,4.314
		S298.208,324.875,295.581,325.08L295.581,325.08z"/>
	<path fill-rule="evenodd" clip-rule="evenodd" fill="#3D4041" d="M309.58,333.625l3.181-5.264l4.748-8.443
		c0.739-1.311,1.182-2.164,1.326-2.563c0.257-0.707,0.049-1.061-0.623-1.061c-1.115,0-3.27,1.252-6.46,3.756l0.879-1.57
		c3.462-2.688,6.19-4.031,8.185-4.031c1.641,0,2.149,0.854,1.527,2.564c-0.211,0.58-0.694,1.549-1.449,2.904l-2.374,4.223h0.256
		c2.485-2.918,4.949-5.262,7.388-7.033c2.44-1.771,4.435-2.658,5.984-2.658c1.869,0,2.425,1.037,1.671,3.111
		c-0.245,0.672-0.641,1.492-1.188,2.461l-4.692,8.34c-0.743,1.322-1.186,2.176-1.326,2.564c-0.262,0.717-0.056,1.076,0.616,1.076
		c1.139,0,3.299-1.252,6.477-3.756l-0.902,1.588c-3.458,2.676-6.184,4.014-8.178,4.014c-1.641,0-2.147-0.859-1.522-2.578
		c0.207-0.568,0.695-1.537,1.467-2.902l4.703-8.367c0.373-0.648,0.64-1.195,0.801-1.639c0.336-0.922,0.162-1.383-0.522-1.383
		c-2.176,0-6.449,3.447-12.821,10.34l-3.469,6.102L309.58,333.625L309.58,333.625z"/>
	<path fill-rule="evenodd" clip-rule="evenodd" fill="#3D4041" d="M345.395,333.42l0.841-1.043h1.196
		c1.049,0,1.757-0.162,2.126-0.486c0.369-0.326,1.115-1.453,2.239-3.383l4.804-8.547c0.688-1.234,1.11-2.068,1.269-2.502
		c0.191-0.525-0.2-0.828-1.174-0.908l-1.511-0.119l0.361-1.043l7.743-0.939l-3.292,5.475l-4.751,8.451
		c-0.993,1.791-1.519,2.766-1.577,2.926c-0.262,0.719,0.099,1.076,1.077,1.076h1.522l-0.329,1.043H345.395L345.395,333.42z"/>
	<path fill-rule="evenodd" clip-rule="evenodd" fill="#3D4041" d="M361.569,334.488l-2.288,3.611
		c1.661,0.539,3.067,0.807,4.218,0.807c3.749,0,7.642-1.609,11.679-4.828s6.821-6.93,8.352-11.135
		c0.95-2.609,1.05-4.678,0.301-6.203c-0.749-1.527-2.229-2.291-4.438-2.291c-2.553,0-5.201,1.063-7.945,3.188
		c-2.745,2.125-4.619,4.566-5.623,7.324c-0.597,1.641-0.558,3.004,0.117,4.092c0.675,1.09,1.82,1.633,3.438,1.633
		c2.77,0,5.846-1.516,9.228-4.547c-1.493,3.162-3.588,5.906-6.287,8.234s-5.125,3.49-7.278,3.49c-2.438,0-3.334-0.891-2.685-2.672
		l0.271-0.703H361.569L361.569,334.488z M377.991,315.715c1.401,0,2.348,0.561,2.839,1.682c0.492,1.123,0.423,2.551-0.208,4.283
		c-0.709,1.947-1.94,3.619-3.697,5.016c-1.756,1.396-3.511,2.094-5.266,2.094c-2.7,0-3.409-1.762-2.128-5.281
		c0.78-2.143,1.997-3.977,3.652-5.504S376.441,315.715,377.991,315.715L377.991,315.715z"/>
	<path fill-rule="evenodd" clip-rule="evenodd" fill="#3D4041" d="M392.584,333.848c3.133,0,6.196-1.168,9.188-3.504
		c2.993-2.336,5.108-5.207,6.349-8.613c0.825-2.268,0.798-4.049-0.081-5.342c-0.88-1.293-2.505-1.939-4.875-1.939
		c-3.053,0-6.072,1.164-9.057,3.494s-5.084,5.166-6.299,8.504c-0.83,2.279-0.817,4.082,0.039,5.41
		C388.705,333.184,390.283,333.848,392.584,333.848L392.584,333.848z M393.175,332.805c-2.842,0-3.661-1.648-2.463-4.943
		c1.316-3.615,3.086-6.582,5.31-8.896c2.224-2.316,4.42-3.473,6.587-3.473c2.91,0,3.74,1.717,2.491,5.148
		c-0.61,1.678-1.57,3.521-2.88,5.535c-1.309,2.014-2.521,3.504-3.639,4.475C396.94,332.086,395.137,332.805,393.175,332.805
		L393.175,332.805z"/>
	<path fill-rule="evenodd" clip-rule="evenodd" fill="#3D4041" d="M404.333,337.539l2.905-2.205
		c0.766,1.402,2.152,2.104,4.157,2.104c1.822,0,3.551-0.639,5.185-1.918c1.633-1.277,2.815-2.92,3.546-4.93
		c1.158-3.184-0.456-4.775-4.842-4.775c-0.821,0-1.771,0.092-2.852,0.275l6.325-11.23h13.28l-2.238,2.957h-11.144l-3.419,5.262
		c0.908-0.146,1.692-0.221,2.353-0.221c2.575,0,4.446,0.605,5.613,1.813s1.396,2.785,0.688,4.734c-0.88,2.416-2.81,4.604-5.79,6.563
		c-2.98,1.961-5.872,2.939-8.676,2.939C407.603,338.906,405.906,338.451,404.333,337.539L404.333,337.539z"/>
	<path fill-rule="evenodd" clip-rule="evenodd" fill="#3D4041" d="M138.028,271.191l4.587,14.09h6.321l-10.042-29.658l-11.986,17.92
		c-0.662,0.986-1.303,1.982-1.924,2.988c-0.169,0.301-0.324,0.6-0.465,0.9c-0.747-1.297-1.508-2.594-2.283-3.889l-12.261-17.92
		l-9.83,29.658h6.173l4.503-14.045c0.437-1.297,0.704-2.613,0.803-3.947c0.507,1.248,1.163,2.457,1.966,3.627l10.929,15.496
		l10.824-15.176c0.944-1.248,1.592-2.564,1.945-3.947c0.211,1.229,0.437,2.457,0.676,3.686L138.028,271.191L138.028,271.191z"/>
	<polygon fill-rule="evenodd" clip-rule="evenodd" fill="#3D4041" points="163.773,285.281 187.027,285.281 187.027,281.131 
		170.538,281.131 170.538,271.902 187.027,271.902 187.027,267.84 170.538,267.84 170.538,260.688 187.027,260.688 187.027,256.74 
		163.773,256.74 163.773,285.281 	"/>
	<path fill-rule="evenodd" clip-rule="evenodd" fill="#3D4041" d="M201.61,285.281h6.258v-19.836
		c1.212,1.152,2.565,2.215,4.059,3.193l26.932,17.744V256.74h-6.279v19.807c-1.381-1.238-2.896-2.395-4.545-3.469l-26.425-17.455
		V285.281L201.61,285.281z"/>
	<path fill-rule="evenodd" clip-rule="evenodd" fill="#3D4041" d="M254.14,256.74v17.76c-0.07,2.148,0.514,4.203,1.755,6.166
		c1.677,2.322,4.319,3.865,7.927,4.629c3.777,0.746,7.61,0.92,11.5,0.523c3.044-0.262,5.771-1.051,8.181-2.365
		c2.128-1.346,3.502-2.984,4.124-4.92c0.45-1.324,0.669-2.67,0.655-4.033v-17.76h-6.66v17.34c0.056,1.479-0.345,2.9-1.205,4.266
		c-1.17,1.654-3.058,2.703-5.666,3.148c-2.607,0.426-5.2,0.383-7.779-0.131c-2.607-0.629-4.376-1.838-5.306-3.627
		c-0.578-1.189-0.846-2.408-0.804-3.656v-17.34H254.14L254.14,256.74z"/>
	<polygon fill-rule="evenodd" clip-rule="evenodd" fill="#3D4041" points="302.167,285.281 308.848,285.281 308.848,256.74 
		302.167,256.74 302.167,285.281 	"/>
	<path fill-rule="evenodd" clip-rule="evenodd" fill="#3D4041" d="M322.649,279.578c0.774,2.391,2.72,4.174,5.835,5.355
		c2.875,0.928,5.884,1.281,9.026,1.059c3.241-0.135,6.081-0.939,8.52-2.408c3.607-2.738,4.538-5.848,2.79-9.33
		c-0.803-1.219-1.994-2.215-3.572-2.99c-2.171-1.063-4.475-1.953-6.913-2.67c-1.466-0.434-2.889-0.924-4.27-1.465
		c-0.874-0.357-1.614-0.822-2.221-1.393c-0.83-0.92-1.063-1.906-0.696-2.961c0.465-1.219,1.563-2.025,3.297-2.422
		c3.03-0.639,5.595-0.146,7.695,1.48c0.323,0.27,0.627,0.555,0.908,0.855l5.285-1.873c-1.198-2.088-3.354-3.477-6.469-4.164
		c-3.551-0.744-7.104-0.734-10.654,0.029c-6.088,1.877-8.356,5.045-6.807,9.504c0.761,1.49,2.064,2.703,3.911,3.643
		c2.071,1.016,4.256,1.896,6.553,2.641c1.508,0.484,3.002,0.996,4.482,1.537c0.845,0.311,1.585,0.707,2.219,1.191
		c0.817,0.695,1.198,1.494,1.142,2.393c0,0.93-0.388,1.775-1.163,2.541c-0.958,0.822-2.184,1.324-3.678,1.508
		c-2.199,0.301-4.305,0.107-6.321-0.58c-1.705-0.678-2.817-1.668-3.34-2.975l-0.084-0.232L322.649,279.578L322.649,279.578z"/>
	<polygon fill-rule="evenodd" clip-rule="evenodd" fill="#3D4041" points="363.362,285.281 386.616,285.281 386.616,281.131 
		370.125,281.131 370.125,271.902 386.616,271.902 386.616,267.84 370.125,267.84 370.125,260.688 386.616,260.688 386.616,256.74 
		363.362,256.74 363.362,285.281 	"/>
	<path fill-rule="evenodd" clip-rule="evenodd" fill="#3D4041" d="M407.414,272.512h0.719L422,285.281h7.61l-14.333-12.957
		c2.114-0.146,4.045-0.639,5.793-1.48c1.803-0.986,2.931-2.26,3.382-3.816c0.831-2.35,0.444-4.6-1.163-6.746
		c-1.367-1.635-3.389-2.676-6.066-3.121c-2.043-0.318-4.115-0.459-6.216-0.42h-0.55h-9.428v28.541h6.384V272.512L407.414,272.512z
		 M407.794,268.928v-8.197c1.72-0.029,3.424,0.029,5.116,0.174c0.958,0.088,1.86,0.291,2.705,0.609
		c1.001,0.426,1.656,1.031,1.966,1.814c0.296,0.764,0.381,1.543,0.254,2.336c-0.056,0.58-0.289,1.121-0.696,1.625
		c-0.536,0.561-1.263,0.953-2.179,1.176c-1.043,0.23-2.106,0.367-3.191,0.406C410.444,268.918,409.119,268.938,407.794,268.928
		L407.794,268.928z"/>
	<polygon fill-rule="evenodd" clip-rule="evenodd" fill="#3D4041" points="442.925,285.281 449.606,285.281 449.606,256.74 
		442.925,256.74 442.925,285.281 	"/>
	<polygon fill-rule="evenodd" clip-rule="evenodd" fill="#3D4041" points="462.836,285.281 486.09,285.281 486.09,281.131 
		469.602,281.131 469.602,271.902 486.09,271.902 486.09,267.84 469.602,267.84 469.602,260.688 486.09,260.688 486.09,256.74 
		462.836,256.74 462.836,285.281 	"/>
</g>
</svg>
