<svg xmlns="http://www.w3.org/2000/svg" width="355.685" height="97.034" viewBox="0 0 355.685 97.034">
  <g id="logo" transform="translate(-196.94 -349.287)">
    <path id="Tracé_95" d="M481.661,423q.077,11.152,5.341,12.486H471.138q5.261-1.334,5.34-12.486V408.786q-.079-11.15-5.34-12.486h10.523Z" transform="translate(-54.644 -9.369)" fill="#be862c"/>
    <path id="Tracé_96" d="M364.336,404.815" transform="translate(-33.36 -11.066)" fill="#5E7361"/>
    <path id="Tracé_97" d="M370.784,395.123" transform="translate(-34.645 -9.134)" fill="#5E7361"/>
    <g id="Groupe_41" transform="translate(366.87 436.085)">
      <path id="Tracé_98" d="M409.163,466.555l.331-.548a4.8,4.8,0,0,0,3.33,1.269c2.019,0,2.912-.88,2.912-1.975,0-3.028-6.3-1.211-6.3-4.931,0-1.427,1.1-2.682,3.575-2.682a5.413,5.413,0,0,1,3.042.908l-.274.591a5,5,0,0,0-2.768-.85c-1.961,0-2.84.909-2.84,2.019,0,3.027,6.3,1.24,6.3,4.9,0,1.428-1.139,2.667-3.633,2.667A5.177,5.177,0,0,1,409.163,466.555Z" transform="translate(-409.163 -457.688)" fill="#be862c"/>
      <path id="Tracé_99" d="M434.426,465.03h-5.854l-1.283,2.84H426.5l4.643-10.092h.735l4.643,10.092h-.793Zm-.275-.621-2.653-5.824-2.638,5.824Z" transform="translate(-412.617 -457.706)" fill="#be862c"/>
      <path id="Tracé_100" d="M455.487,457.778l-4.5,10.092h-.736l-4.5-10.092h.807l4.08,9.14,4.08-9.14Z" transform="translate(-416.455 -457.706)" fill="#be862c"/>
      <path id="Tracé_101" d="M465.826,462.806a5.25,5.25,0,1,1,5.248,5.117A5.053,5.053,0,0,1,465.826,462.806Zm9.746,0a4.506,4.506,0,1,0-4.5,4.441A4.358,4.358,0,0,0,475.572,462.806Z" transform="translate(-420.455 -457.688)" fill="#be862c"/>
      <path id="Tracé_102" d="M497.535,457.778V467.87h-.605l-6.877-8.766v8.766h-.736V457.778h.62l6.862,8.765v-8.765Z" transform="translate(-425.137 -457.706)" fill="#be862c"/>
      <path id="Tracé_103" d="M519.388,457.778V467.87h-.606L511.9,459.1v8.766h-.736V457.778h.621l6.862,8.765v-8.765Z" transform="translate(-429.491 -457.706)" fill="#be862c"/>
      <path id="Tracé_104" d="M539.986,467.206v.664h-6.964V457.778h6.748v.663h-6.012v3.98h5.378v.649h-5.378v4.137Z" transform="translate(-433.846 -457.706)" fill="#be862c"/>
      <path id="Tracé_105" d="M559.271,467.87l-2.408-3.373a7.255,7.255,0,0,1-.981.072H553v3.3h-.736V457.778h3.618c2.537,0,4.067,1.268,4.067,3.4a3.1,3.1,0,0,1-2.365,3.157l2.523,3.533Zm-3.389-3.951c2.164,0,3.317-1.01,3.317-2.739,0-1.745-1.153-2.739-3.317-2.739H553v5.478Z" transform="translate(-437.681 -457.706)" fill="#be862c"/>
      <path id="Tracé_106" d="M572.423,457.778h.736V467.87h-.736Z" transform="translate(-441.698 -457.706)" fill="#be862c"/>
      <path id="Tracé_107" d="M591.9,467.206v.664h-6.964V457.778h6.748v.663h-6.012v3.98h5.378v.649h-5.378v4.137Z" transform="translate(-444.191 -457.706)" fill="#be862c"/>
    </g>
    <path id="Tracé_108" d="M485.131,369.331a.12.12,0,0,1,0,.239,7.535,7.535,0,0,0-4.9,3.526,18.71,18.71,0,0,0-2.51,8.067h-.239a17.263,17.263,0,0,0-2.45-8.067,7.724,7.724,0,0,0-4.84-3.526.12.12,0,0,1,0-.239,7.671,7.671,0,0,0,4.84-3.586,17.45,17.45,0,0,0,2.45-8.007.119.119,0,1,1,.239,0,19.8,19.8,0,0,0,1.435,5.916,11.943,11.943,0,0,0,2.57,3.884A6.588,6.588,0,0,0,485.131,369.331Zm7.583-14.29a.059.059,0,0,1,0,.118,3.7,3.7,0,0,0-2.407,1.732,9.183,9.183,0,0,0-1.233,3.963h-.118a8.467,8.467,0,0,0-1.2-3.963,3.789,3.789,0,0,0-2.378-1.732.059.059,0,0,1,0-.118,3.765,3.765,0,0,0,2.378-1.762,8.56,8.56,0,0,0,1.2-3.934.059.059,0,0,1,.118,0,9.73,9.73,0,0,0,.7,2.907,5.882,5.882,0,0,0,1.263,1.908A3.239,3.239,0,0,0,492.714,355.041Z" transform="translate(-54.431)" fill="#be862c"/>
    <g id="Groupe_45" transform="translate(196.94 365.506)">
      <path id="Tracé_109" d="M284.271,432.971a13.206,13.206,0,0,1-9.974.667,19.194,19.194,0,0,1-9.345-6.479L284.9,402.816,287.8,399.2a20.273,20.273,0,0,0-10.366-4.005,20.767,20.767,0,0,0-11.23,2.12A19.912,19.912,0,0,0,256,409.255a20.542,20.542,0,0,0,35.1,19.711l-1.492-1.178A12.145,12.145,0,0,1,284.271,432.971ZM261.89,422.527a21.3,21.3,0,0,1-2.277-14.254q1.414-7.107,7.068-9.934a13.331,13.331,0,0,1,8.953-.982,18.148,18.148,0,0,1,8.638,4.83L264.4,426.531A28.578,28.578,0,0,1,261.89,422.527Z" transform="translate(-208.492 -374.637)" fill="#5E7361"/>
      <path id="Tracé_110" d="M368.711,443.71c-5.24-.856-8.05-6.744-8.05-13.643,0-7.39.057-13.243.057-30.436,0-.7-.018-1.357-.048-1.983,0-3.2,0-5.959,0-7.734,0-1.722-.029-3.446-.135-5.123h6.142l.786-1.1h-7.009c-.666-7.719-3.3-14.149-13.249-14.149-7.865,0-11.77,4.563-11.77,7.78,2.634-4.594,7.958-4.992,12.06-4.321,5.239.855,8.049,6.744,8.049,13.642,0,7.39-.056,13.243-.056,30.436,0,.7.018,1.359.048,1.985,0,3.2,0,5.957,0,7.733,0,10.143.92,20.37,13.466,20.37,7.865,0,11.77-4.563,11.77-7.78C378.137,443.981,372.812,444.379,368.711,443.71Z" transform="translate(-224.539 -369.543)" fill="#5E7361"/>
      <path id="Tracé_111" d="M338.011,422.677V412.625a40.432,40.432,0,0,0-.549-7.068,13.368,13.368,0,0,0-.392-1.727,13.984,13.984,0,0,0-1.846-4.594,7.835,7.835,0,0,0-2.867-2.709,12.076,12.076,0,0,0-3.22-1.179,19.121,19.121,0,0,0-3.69-.314,12.272,12.272,0,0,0-6.636,2,15.161,15.161,0,0,0-4.35,4.177v-5.165H303.937q5.261,1.336,5.34,12.486v14.214q-.079,11.152-5.34,12.486H319.8q-2.592-.627-3.927-3.927a24.054,24.054,0,0,1-1.413-8.56V402.78a15.983,15.983,0,0,1,3.212-3.506,9.256,9.256,0,0,1,6.047-2.2q5.183,0,7.107,3.808t1.923,11.741v10.052q-.078,11.152-5.34,12.486h15.864Q338.01,433.829,338.011,422.677Z" transform="translate(-218.263 -374.623)" fill="#5E7361"/>
      <path id="Tracé_112" d="M232.84,407.248a30.012,30.012,0,0,0-7.572-4.316,62.892,62.892,0,0,0-10.986-3.335,16.9,16.9,0,0,1-7.847-3.727,11.168,11.168,0,0,1-3.767-5.807,10.779,10.779,0,0,1,.314-6.042,8.181,8.181,0,0,1,3.688-4.512q6.356-3.767,15.145,0,9.337,4.159,6.513,10.044l5.1-6.042,1.491-1.883H235a27.661,27.661,0,0,0-17.028-5.65,24.189,24.189,0,0,0-11.771,2.59,16.861,16.861,0,0,0-4.277,3.492,17.718,17.718,0,0,0-3.06,4.787,11.624,11.624,0,0,0-.942,5.493,11.978,11.978,0,0,0,1.687,5.375,13.753,13.753,0,0,0,5.218,4.63,30.9,30.9,0,0,0,9.3,3.217,38.758,38.758,0,0,1,10.633,3.531,19.81,19.81,0,0,1,6.631,5.1,14.2,14.2,0,0,1,2.746,5.611,8.049,8.049,0,0,1-.589,5.375,9.544,9.544,0,0,1-3.884,4.08,16.216,16.216,0,0,1-8.749,1.844,31.536,31.536,0,0,1-10.476-2.315,19.189,19.189,0,0,1-5.414-3.257,5.022,5.022,0,0,1-1.883-3.257,7.194,7.194,0,0,1,.628-3.217l-3.139,3.688-3.688,4.394a27.453,27.453,0,0,0,8.279,3.61,52.96,52.96,0,0,0,12.516,1.962,24.249,24.249,0,0,0,12.4-2.511A20.063,20.063,0,0,0,235,426.67a12.994,12.994,0,0,0,2.982-4.434,12.845,12.845,0,0,0,.9-4.944,10.012,10.012,0,0,0-1.648-5.14A20.594,20.594,0,0,0,232.84,407.248Z" transform="translate(-196.94 -370.825)" fill="#5E7361"/>
      <g id="Groupe_42" transform="translate(140.867 21.425)">
        <path id="Tracé_113" d="M407.733,423v-.09c-3.179,3.646-5.354,6.183-5.354,6.183V427.48a15.169,15.169,0,0,1-3.913,4.709,9.257,9.257,0,0,1-6.047,2.2q-5.183,0-7.107-3.809t-1.923-11.74V408.786q.077-11.15,5.34-12.486H372.866q5.259,1.336,5.339,12.486v10.052a37.986,37.986,0,0,0,.707,7.853,17.309,17.309,0,0,0,1.806,5.143,8.338,8.338,0,0,0,2.827,2.906,10.157,10.157,0,0,0,3.337,1.375,20.236,20.236,0,0,0,3.809.314,12.278,12.278,0,0,0,6.636-2,15.364,15.364,0,0,0,5.144-5.379v6.439h10.523Q407.733,434.153,407.733,423Z" transform="translate(-372.866 -396.3)" fill="#5E7361"/>
        <path id="Tracé_114" d="M408.511,408.786v18.467c.637-.784,2.637-3.147,5.262-6.21V408.786q0-11.15,5.261-12.486H403.171Q408.432,397.636,408.511,408.786Z" transform="translate(-378.905 -396.3)" fill="#5E7361"/>
      </g>
      <g id="Groupe_43" transform="translate(184.372 20.446)">
        <path id="Tracé_115" d="M432.352,405.223c2.381-2.662,4.332-4.783,5.37-5.784V396.3H427.2Q431.544,397.419,432.352,405.223Z" transform="translate(-427.199 -395.322)" fill="#5E7361"/>
        <path id="Tracé_116" d="M459.79,399.2a13.363,13.363,0,0,0-6.047-3.574,13.517,13.517,0,0,0-6.242-.314,19.537,19.537,0,0,0-5.356,1.951,123.641,123.641,0,0,0-9.641,9.762c.017.392.03.792.036,1.205v14.528q-.079,11.152-5.341,12.486h15.864q-2.592-.627-3.927-3.927a24.036,24.036,0,0,1-1.413-8.56V407.287q.549-6.754,4.79-8.953,4.4-2.356,9.424.472a7.488,7.488,0,0,1,2.042,1.806,6.362,6.362,0,0,1,1.178,2.277,3.767,3.767,0,0,1-.078,2.278Q456.492,403.361,459.79,399.2Z" transform="translate(-427.199 -395.078)" fill="#5E7361"/>
      </g>
      <path id="Tracé_117" d="M526.021,423.478c-3.177,3.373-5.264,5.547-5.264,5.547V427.3c.588-.735,2.648-3.011,5.257-5.856V408.786q0-11.15,5.261-12.486H515.412q5.261,1.336,5.341,12.486V427.32a15.105,15.105,0,0,1-4.005,4.869,9.26,9.26,0,0,1-6.048,2.2q-5.181,0-7.106-3.809t-1.924-11.74V408.786q.077-11.15,5.34-12.486H491.146q5.261,1.336,5.341,12.486v10.052a37.986,37.986,0,0,0,.706,7.853A17.307,17.307,0,0,0,499,431.835a8.337,8.337,0,0,0,2.827,2.906,10.165,10.165,0,0,0,3.337,1.375,20.242,20.242,0,0,0,3.809.314,12.276,12.276,0,0,0,6.636-2,15.373,15.373,0,0,0,5.145-5.379v6.439h10.522Q526.13,434.183,526.021,423.478Z" transform="translate(-255.571 -374.875)" fill="#5E7361"/>
      <g id="Groupe_44" transform="translate(279.082 20.482)">
        <path id="Tracé_118" d="M550.732,406.355c.612-.672,1.091-1.205,1.383-1.539a48.476,48.476,0,0,1,3.89-3.995V396.3H545.481Q550.136,397.482,550.732,406.355Z" transform="translate(-545.481 -395.358)" fill="#5E7361"/>
        <path id="Tracé_119" d="M610.026,449.017c-5.24-.856-8.05-6.744-8.05-13.643,0-5.619.033-5.256.048-12.312a.573.573,0,0,0,.058-.253V412.757a40.413,40.413,0,0,0-.549-7.067,13.364,13.364,0,0,0-.393-1.728,13.983,13.983,0,0,0-1.845-4.594,7.835,7.835,0,0,0-2.867-2.709,12.048,12.048,0,0,0-3.22-1.178,19.059,19.059,0,0,0-3.69-.315,12.272,12.272,0,0,0-6.635,2,15.164,15.164,0,0,0-4.305,4.108,11.594,11.594,0,0,0-1.014-1.953,7.835,7.835,0,0,0-2.867-2.709,12.077,12.077,0,0,0-3.22-1.179,19.127,19.127,0,0,0-3.69-.314,11.779,11.779,0,0,0-4.551.925l.021,0c-.07.023-.142.058-.212.084a13.912,13.912,0,0,0-1.893,1c-.086.054-.169.11-.254.164a30.007,30.007,0,0,0-4.816,4.64c-.024.04-.05.075-.074.116v-.031c-1.657,1.893-3.376,4.015-5.194,6.079,0,.154.01.3.01.458v14.214q-.078,11.152-5.34,12.486h15.864q-2.592-.627-3.928-3.927a24.055,24.055,0,0,1-1.412-8.56V404.233a15.07,15.07,0,0,1,4.005-4.869,9.255,9.255,0,0,1,6.047-2.2q5.183,0,7.106,3.808t1.924,11.741v10.052q-.079,11.152-5.34,12.486H585.61q-5.262-1.334-5.262-12.486V412.714a40.435,40.435,0,0,0-.549-7.068,13.879,13.879,0,0,0-.393-1.727c-.128-.561-.281-1.084-.447-1.589a16.374,16.374,0,0,1,2.783-2.923,9.256,9.256,0,0,1,6.047-2.2q5.183,0,7.107,3.809t1.923,11.74v10.052a.29.29,0,0,0,.022.061c0,3.445.008,6.258.008,9.234,0,10.143.92,20.37,13.466,20.37,7.865,0,11.769-4.563,11.769-7.78C619.45,449.288,614.126,449.686,610.026,449.017Z" transform="translate(-545.481 -395.123)" fill="#5E7361"/>
      </g>
    </g>
  </g>
</svg>
